<svg width="206" height="69" viewBox="0 0 206 69" fill="none" xmlns="http://www.w3.org/2000/svg">
<g clip-path="url(#clip0_343_265)">
<path d="M0 20.9908V20.3243H3.33159V12.8959C3.33159 12.2487 3.21604 11.7174 2.99458 11.3117C2.77311 10.906 2.3013 10.7031 1.56951 10.7031L5.39217 9.18652V20.3243H8.48303V20.9908H5.39217V45.633C5.39217 46.2415 5.43068 46.8501 5.51734 47.4587C5.59437 48.0672 5.76769 48.6179 6.0373 49.1008C6.29728 49.5838 6.66318 49.9799 7.12536 50.289C7.58755 50.5885 8.2038 50.743 8.9741 50.743H5.45957C4.77592 50.743 4.24633 50.4436 3.88043 49.835C3.51454 49.2264 3.33159 48.6179 3.33159 48.0093V20.9908H0Z" fill="#3F3F3F"/>
<path d="M10.4958 50.7429C11.2276 50.7429 11.8439 50.598 12.3446 50.3179C12.8453 50.0378 13.2786 49.6514 13.6156 49.1587C13.9622 48.6757 14.2029 48.1251 14.3474 47.5166C14.4918 46.908 14.5592 46.2801 14.5592 45.6329V24.4007C14.5592 23.7148 14.4437 23.1739 14.2222 22.7875C14.0007 22.4011 13.5289 22.2079 12.7971 22.2079L16.562 20.6237V27.9844C17.496 25.5502 18.7189 23.6568 20.2306 22.2948C21.7423 20.9328 23.8414 20.2566 26.5086 20.2566C27.2789 20.2566 28.0204 20.3049 28.7522 20.4111C29.4839 20.5174 30.1869 20.7106 30.8705 20.9907L29.5321 24.7001C29.2529 23.5216 28.6944 22.6329 27.8663 22.0243C27.0382 21.4158 26.0368 21.0873 24.8621 21.0487C23.8896 21.0101 23.023 21.1453 22.2527 21.4737C21.4824 21.8022 20.7987 22.2562 20.1921 22.8454C19.5855 23.4347 19.0655 24.1109 18.6418 24.8836C18.2182 25.6564 17.8426 26.4678 17.5153 27.3179C17.4767 27.4435 17.3997 27.6753 17.3034 28.0134C17.1975 28.3612 17.0916 28.7089 16.9664 29.076C16.8412 29.4431 16.745 29.7715 16.6679 30.0806C16.5909 30.3801 16.5427 30.6022 16.5427 30.7182V45.6232C16.5427 46.2705 16.6102 46.8983 16.7546 47.5069C16.899 48.1155 17.1301 48.6661 17.4479 49.1491C17.7752 49.6321 18.1797 50.0185 18.6611 50.3083C19.1425 50.5884 19.7492 50.7333 20.481 50.7333H10.4766L10.4958 50.7429ZM22.4452 42.165C22.4452 40.1751 22.9074 38.5619 23.8414 37.3255C24.7754 36.089 25.9309 35.0554 27.3271 34.2247C28.7233 33.3939 30.2254 32.7081 31.843 32.1575C33.4607 31.6069 34.9628 31.0756 36.359 30.5443C37.7551 30.013 38.9202 29.4141 39.8446 28.7476C40.7786 28.081 41.2408 27.2213 41.2408 26.1587C41.2408 25.3087 41.0097 24.5455 40.5475 23.879C40.0853 23.2125 39.5076 22.6426 38.8143 22.1789C38.1307 21.7152 37.37 21.3482 36.5419 21.0873C35.7138 20.8265 34.9339 20.6913 34.2021 20.6913C33.4318 20.6913 32.7481 20.7686 32.1415 20.9328C32.5844 20.7299 33.037 20.5947 33.5088 20.5367C33.971 20.4788 34.4524 20.4498 34.9339 20.4498C37.7263 20.4498 39.8928 21.3192 41.4526 23.0676C43.0125 24.816 43.7924 27.0474 43.7924 29.7618V45.6426C43.7924 47.1012 44.1776 48.3183 44.9479 49.294C45.7182 50.2696 46.8641 50.7526 48.4047 50.7526H44.9479C44.2643 50.7526 43.7154 50.6174 43.311 50.3566C42.9066 50.0957 42.5888 49.748 42.3674 49.323C42.1459 48.8979 41.9918 48.4246 41.9148 47.8933C41.8378 47.362 41.7896 46.8404 41.7896 46.3091C40.7401 47.7677 39.4209 48.8689 37.8514 49.5934C36.2819 50.3179 34.6161 50.714 32.8733 50.7526C31.6216 50.7526 30.3698 50.5691 29.1084 50.202C27.8567 49.8349 26.7301 49.294 25.7383 48.5598C24.7465 47.8257 23.9473 46.9273 23.3407 45.8551C22.7341 44.7828 22.4356 43.556 22.4356 42.1747L22.4452 42.165ZM24.8139 42.165C24.8139 43.4208 25.1221 44.5413 25.7576 45.5073C26.3835 46.483 27.173 47.2944 28.1263 47.9416C29.0795 48.5888 30.1387 49.0815 31.3134 49.4002C32.4882 49.7287 33.6147 49.8832 34.7124 49.8832C36.253 49.8832 37.63 49.4872 38.8625 48.6951C40.095 47.903 41.0771 46.8404 41.8089 45.4977V29.7425C41.8089 29.2982 41.7896 28.8635 41.7511 28.4384C41.7126 28.0134 41.6452 27.5787 41.5682 27.1344C41.443 27.9458 40.9519 28.6316 40.0853 29.2016C39.2187 29.7715 38.1499 30.3318 36.8982 30.8727C35.6464 31.4233 34.3176 32.0029 32.9214 32.6115C31.5253 33.2201 30.2254 33.9542 29.0121 34.8043C27.7989 35.6543 26.7975 36.6686 26.0079 37.8471C25.2184 39.0256 24.8236 40.4649 24.8236 42.165H24.8139Z" fill="#3F3F3F"/>
<path d="M59.9789 50.743H60.0366H49.9648H50.0226C51.4766 50.7044 52.5069 50.1634 53.1135 49.1298C53.7201 48.0962 54.0186 46.9274 54.0186 45.633V24.4007C54.0186 23.7922 53.9031 23.2705 53.6816 22.8455C53.4601 22.4205 52.9883 22.208 52.2565 22.208L56.0214 20.6914V25.9849C57.0709 24.1592 58.5057 22.7392 60.3255 21.725C62.1454 20.7107 64.0904 20.2084 66.151 20.2084C67.9323 20.2084 69.4537 20.5271 70.7343 21.155C72.0053 21.7829 73.0549 22.6426 73.8926 23.7439C74.7207 24.8354 75.3273 26.1105 75.7124 27.5498C76.0976 28.9891 76.2902 30.525 76.2902 32.1479V45.6523C76.2902 46.9467 76.5887 48.1156 77.1953 49.1492C77.8019 50.1828 78.8322 50.7237 80.2861 50.7623H70.2144C70.9461 50.7623 71.5624 50.6174 72.0631 50.3373C72.5638 50.0572 72.9778 49.6708 73.3052 49.1781C73.6326 48.6951 73.8637 48.1445 73.9985 47.536C74.1429 46.9274 74.2103 46.2995 74.2103 45.6523V32.1479C74.2103 30.5637 74.037 29.0954 73.6904 27.7334C73.3437 26.3713 72.7853 25.2122 72.0246 24.2365C71.2543 23.2609 70.2721 22.4881 69.0878 21.9278C67.8938 21.3579 66.4495 21.0778 64.7548 21.0778C63.0601 21.0778 61.5291 21.5221 60.1714 22.4205C58.8138 23.3092 57.7161 24.4683 56.8687 25.8883C56.8302 25.927 56.7628 26.0429 56.6858 26.2264C56.6088 26.41 56.5125 26.6128 56.4162 26.835C56.3103 27.0572 56.2236 27.2504 56.1466 27.4146C56.0695 27.5788 56.0214 27.6947 56.0214 27.7817V45.6716C56.0214 46.966 56.3199 48.1349 56.9265 49.1685C57.5331 50.2021 58.5442 50.743 59.9596 50.7817L59.9789 50.743Z" fill="#3F3F3F"/>
<path d="M79.0917 35.4128C79.0917 33.3456 79.4961 31.3847 80.3049 29.5396C81.1137 27.6946 82.2018 26.0814 83.5787 24.7001C84.9556 23.3187 86.5637 22.2272 88.4028 21.4157C90.2419 20.6043 92.1966 20.1986 94.2571 20.1986C95.1045 20.1986 95.9133 20.2759 96.6836 20.4401C97.4539 20.6043 98.1857 20.7975 98.8982 21.0197C99.6012 21.2419 100.294 21.4351 100.959 21.5993C101.623 21.7635 102.288 21.8408 102.933 21.8408C103.414 21.8408 103.828 21.6766 104.175 21.3578C104.522 21.0294 104.791 20.6526 104.993 20.1986V63.9479C104.993 64.5564 105.061 65.165 105.205 65.7736C105.35 66.3821 105.571 66.9328 105.87 67.4157C106.168 67.8987 106.572 68.2851 107.083 68.5749C107.583 68.8551 108.209 69 108.932 69H98.8597H98.9175C99.6493 69 100.266 68.8551 100.766 68.5749C101.267 68.2948 101.681 67.9181 102.008 67.4447C102.336 66.9811 102.567 66.4401 102.702 65.8315C102.846 65.223 102.913 64.5951 102.913 63.9479V48.0092C101.623 48.8979 100.237 49.5741 98.7634 50.0184C97.2902 50.4628 95.7785 50.7043 94.2475 50.7526C92.1484 50.7912 90.1745 50.4145 88.3354 49.6224C86.4963 48.8303 84.8882 47.7387 83.5113 46.338C82.1344 44.9374 81.056 43.2952 80.2664 41.4115C79.4768 39.5279 79.082 37.5283 79.082 35.4225L79.0917 35.4128ZM81.393 35.4708C81.393 37.538 81.7396 39.4603 82.4232 41.2183C83.1069 42.9861 84.0794 44.5027 85.3312 45.7778C86.5829 47.0529 88.0754 48.0575 89.8182 48.7916C91.561 49.5258 93.4579 49.8832 95.5185 49.8832C96.8569 49.8832 98.1568 49.6417 99.4278 49.1491C100.699 48.6564 101.864 48.0092 102.913 47.1978V23.7148C101.864 22.8647 100.708 22.2078 99.4567 21.7345C98.205 21.2708 96.8858 21.039 95.5185 21.039C93.4579 21.039 91.5514 21.4061 89.8182 22.1306C88.0754 22.8647 86.5926 23.879 85.3601 25.1734C84.1276 26.4678 83.155 27.9941 82.4521 29.7328C81.7396 31.4813 81.393 33.3842 81.393 35.4514V35.4708Z" fill="#3F3F3F"/>
<path d="M108.017 22.2079L111.84 20.6913V39.0642C111.84 40.6484 112.013 42.1167 112.36 43.4788C112.707 44.8408 113.255 46 114.026 46.9756C114.796 47.9513 115.778 48.724 116.963 49.2843C118.157 49.8542 119.601 50.1344 121.296 50.1344C122.99 50.1344 124.55 49.6804 125.966 48.7627C127.381 47.8547 128.45 46.6665 129.182 45.2079C129.259 45.0823 129.422 44.7925 129.663 44.3288C129.904 43.8652 130.029 43.5657 130.029 43.4498V24.1592C130.029 23.5892 129.894 23.1256 129.634 22.7585C129.374 22.3914 128.912 22.2079 128.267 22.2079L132.032 20.6913V46.7921C132.032 47.4007 132.128 47.9223 132.33 48.3473C132.532 48.7723 132.975 48.9849 133.669 48.9849H133.794L130.029 50.5014V45.2079C128.979 47.0336 127.545 48.4536 125.725 49.4678C123.905 50.4821 121.96 50.9844 119.899 50.9844C118.118 50.9844 116.597 50.6753 115.316 50.0378C114.045 49.4099 112.986 48.5502 112.158 47.4489C111.33 46.3574 110.723 45.0823 110.338 43.643C109.953 42.2037 109.76 40.6678 109.76 39.0449V24.3813C109.76 23.7728 109.645 23.2511 109.423 22.8261C109.202 22.4011 108.73 22.1886 107.998 22.1886L108.017 22.2079Z" fill="#3F3F3F"/>
<path d="M138.77 45.6329V24.4007C138.77 23.7921 138.664 23.2705 138.472 22.8454C138.27 22.4204 137.788 22.2079 137.018 22.2079L140.783 21.4738V45.6329C140.783 46.2415 140.85 46.8501 140.995 47.4586C141.139 48.0672 141.361 48.6178 141.659 49.1008C141.958 49.5838 142.362 49.9798 142.872 50.289C143.373 50.5884 144.018 50.743 144.779 50.743H134.707C135.477 50.743 136.122 50.5884 136.652 50.289C137.172 49.9895 137.596 49.5935 137.894 49.1008C138.193 48.6178 138.414 48.0672 138.559 47.4586C138.703 46.8501 138.77 46.2415 138.77 45.6329Z" fill="#3F3F3F"/>
<path d="M156.295 50.743H146.291C147.023 50.743 147.639 50.5981 148.14 50.3179C148.64 50.0378 149.064 49.6514 149.411 49.1588C149.757 48.6758 149.998 48.1252 150.143 47.5166C150.287 46.908 150.354 46.2801 150.354 45.6329V5.59303C150.354 4.94582 150.239 4.43385 150.017 4.07644C149.796 3.70937 149.324 3.52583 148.592 3.52583L152.357 1.94162C153.089 1.25577 153.965 0.753465 154.996 0.454011C156.026 0.154557 157.027 0 158 0C160.667 0 162.737 0.821083 164.22 2.46325C165.703 4.10542 166.435 6.2016 166.435 8.76145C166.435 9.49559 166.329 10.3167 166.126 11.2247C165.924 12.1327 165.645 12.9924 165.279 13.7845C164.913 14.5766 164.49 15.2432 164.008 15.7938C163.527 16.3444 162.997 16.6149 162.429 16.6149C161.986 16.6149 161.591 16.4507 161.245 16.1319C160.898 15.8034 160.705 15.4267 160.667 14.9727C160.628 14.4897 160.792 14.0743 161.148 13.7266C161.514 13.3788 161.938 13.205 162.419 13.205C162.862 13.205 163.238 13.3595 163.546 13.659C163.844 13.9584 164.018 14.3352 164.066 14.7892C164.711 13.9005 165.192 12.9345 165.491 11.9009C165.789 10.8673 165.944 9.82402 165.944 8.7711C165.944 6.33683 165.25 4.34691 163.854 2.811C162.458 1.26543 160.532 0.50231 158.067 0.50231C157.095 0.50231 156.064 0.666527 154.976 0.9853C153.888 1.31373 153.012 1.85468 152.367 2.62747V45.6426C152.367 46.2898 152.434 46.9177 152.579 47.5263C152.723 48.1348 152.954 48.6854 153.272 49.1684C153.599 49.6514 154.004 50.0378 154.485 50.3276C154.967 50.6077 155.573 50.7526 156.305 50.7526L156.295 50.743ZM157.932 50.743C158.664 50.743 159.28 50.5981 159.781 50.3179C160.282 50.0378 160.696 49.6611 161.023 49.1877C161.351 48.7241 161.582 48.1831 161.716 47.5746C161.861 46.966 161.928 46.3381 161.928 45.6909V24.5746C161.928 23.9273 161.822 23.4057 161.62 23.0193C161.418 22.6329 160.956 22.4397 160.224 22.4397L163.989 21.7056V45.6812C163.989 46.2898 164.056 46.8984 164.201 47.5069C164.345 48.1155 164.567 48.6661 164.865 49.1491C165.164 49.6321 165.558 50.0185 166.049 50.3083C166.531 50.5884 167.138 50.7333 167.869 50.7333H157.923L157.932 50.743Z" fill="#3F3F3F"/>
<path d="M169.15 20.9908V20.3243H172.482V12.8959C172.482 12.2487 172.366 11.7174 172.145 11.3117C171.924 10.906 171.452 10.7031 170.72 10.7031L174.543 9.18652V20.3243H177.633V20.9908H174.543V45.633C174.543 46.2415 174.581 46.8501 174.668 47.4587C174.745 48.0672 174.918 48.6179 175.188 49.1008C175.448 49.5838 175.814 49.9799 176.276 50.289C176.738 50.5885 177.354 50.743 178.125 50.743H174.61C173.926 50.743 173.397 50.4436 173.031 49.835C172.665 49.2264 172.482 48.6179 172.482 48.0093V20.9908H169.15Z" fill="#3F3F3F"/>
<path d="M174.879 63.7065C174.879 63.7065 177.691 64.2764 178.817 64.9236C179.944 65.5708 181.099 65.8993 182.274 65.8993C183.728 65.8993 185.018 65.2907 186.154 64.0736C187.281 62.8564 188.273 61.4075 189.13 59.7266C189.977 58.0458 190.699 56.3167 191.287 54.5587C191.874 52.7909 192.326 51.3419 192.654 50.2117L183.92 25.5116C183.68 24.8258 183.439 24.1786 183.189 23.599C182.948 23.0097 182.649 22.4977 182.312 22.0437C181.966 21.5994 181.532 21.2516 181.013 21.0101C180.483 20.7686 179.819 20.6431 179.01 20.6431H188.292C187.608 20.6431 186.944 20.7783 186.318 21.0391C185.692 21.2999 185.374 21.8602 185.374 22.7103C185.374 23.0387 185.413 23.3478 185.5 23.6569C185.577 23.9564 185.683 24.2752 185.808 24.6036L193.626 46.8115L200.241 25.6372C200.482 24.903 200.607 24.1786 200.607 23.4444C200.607 22.5074 200.357 21.8119 199.847 21.3482C199.336 20.8846 198.624 20.6527 197.69 20.6527H205.999C204.622 20.6527 203.583 21.0005 202.88 21.6863C202.177 22.3722 201.638 23.3285 201.272 24.5456L194.05 47.7292C193.684 48.9077 193.222 50.3856 192.654 52.1727C192.086 53.9597 191.431 55.7371 190.68 57.5242C189.929 59.3113 189.101 60.9631 188.196 62.4797C187.291 63.9963 186.328 65.0878 185.317 65.735C184.306 66.4209 183.15 66.7686 181.86 66.7686C180.57 66.7686 179.356 66.4692 178.095 65.8606C176.834 65.2521 175.774 64.5469 174.879 63.7355V63.7065Z" fill="#3F3F3F"/>
<path d="M139.744 16.4603C140.738 16.4603 141.545 15.6516 141.545 14.6539C141.545 13.6563 140.738 12.8475 139.744 12.8475C138.75 12.8475 137.943 13.6563 137.943 14.6539C137.943 15.6516 138.75 16.4603 139.744 16.4603Z" fill="#3F3F3F"/>
<path d="M113.717 63.5615L114.304 63.2041C114.718 63.9673 115.2 64.3536 115.739 64.3536C115.97 64.3536 116.191 64.2957 116.394 64.1894C116.596 64.0832 116.75 63.9383 116.856 63.7547C116.962 63.5712 117.019 63.378 117.019 63.1752C117.019 62.9433 116.942 62.7115 116.788 62.4893C116.577 62.1802 116.182 61.8131 115.604 61.3784C115.026 60.9437 114.67 60.625 114.526 60.4318C114.285 60.1033 114.16 59.7556 114.16 59.3692C114.16 59.0697 114.227 58.7896 114.372 58.5481C114.516 58.2969 114.718 58.1038 114.978 57.9589C115.238 57.814 115.527 57.7463 115.835 57.7463C116.163 57.7463 116.471 57.8236 116.75 57.9878C117.029 58.152 117.337 58.4515 117.655 58.8862L117.087 59.3112C116.827 58.9635 116.605 58.7413 116.423 58.6254C116.24 58.5095 116.037 58.4612 115.826 58.4612C115.546 58.4612 115.315 58.5481 115.142 58.7123C114.969 58.8862 114.872 59.0891 114.872 59.3402C114.872 59.4948 114.901 59.6397 114.969 59.7749C115.026 59.9198 115.142 60.0744 115.315 60.2386C115.402 60.3255 115.7 60.5573 116.211 60.9341C116.808 61.3784 117.222 61.7745 117.443 62.1222C117.665 62.47 117.78 62.8177 117.78 63.1655C117.78 63.6678 117.588 64.1025 117.212 64.4792C116.837 64.856 116.365 65.0395 115.826 65.0395C115.402 65.0395 115.026 64.9236 114.68 64.7014C114.333 64.4792 114.025 64.1025 113.736 63.5712L113.717 63.5615Z" fill="#565759"/>
<path d="M119.225 57.9105H120.602C121.391 57.9105 121.921 57.9492 122.2 58.0168C122.595 58.1134 122.922 58.3162 123.172 58.6157C123.423 58.9151 123.548 59.3015 123.548 59.7555C123.548 60.2096 123.423 60.5959 123.182 60.8954C122.941 61.1949 122.604 61.3977 122.171 61.504C121.853 61.5812 121.276 61.6199 120.409 61.6199H119.918V64.8463H119.225V57.9105ZM119.918 58.5867V60.9437H121.093C121.564 60.9534 121.911 60.9147 122.133 60.8278C122.354 60.7408 122.527 60.6056 122.652 60.4124C122.778 60.2192 122.845 60.0067 122.845 59.7652C122.845 59.5237 122.778 59.3209 122.652 59.1277C122.527 58.9345 122.364 58.7992 122.152 58.7123C121.95 58.635 121.613 58.5867 121.141 58.5867H119.918Z" fill="#565759"/>
<path d="M127.756 57.9105L130.982 64.8463H130.23L129.142 62.5665H126.167L125.089 64.8463H124.318L127.583 57.9105H127.756ZM127.669 59.3885L126.485 61.9H128.854L127.679 59.3885H127.669Z" fill="#565759"/>
<path d="M134.004 63.5615L134.591 63.2041C135.005 63.9673 135.487 64.3536 136.026 64.3536C136.257 64.3536 136.479 64.2957 136.681 64.1894C136.883 64.0832 137.037 63.9383 137.143 63.7547C137.249 63.5712 137.307 63.378 137.307 63.1752C137.307 62.9433 137.23 62.7115 137.076 62.4893C136.864 62.1802 136.469 61.8131 135.891 61.3784C135.313 60.9437 134.957 60.625 134.813 60.4318C134.572 60.1033 134.447 59.7556 134.447 59.3692C134.447 59.0697 134.514 58.7896 134.659 58.5481C134.803 58.2969 135.005 58.1038 135.265 57.9589C135.525 57.814 135.814 57.7463 136.122 57.7463C136.45 57.7463 136.758 57.8236 137.037 57.9878C137.316 58.152 137.624 58.4515 137.942 58.8862L137.374 59.3112C137.114 58.9635 136.893 58.7413 136.71 58.6254C136.527 58.5095 136.324 58.4612 136.113 58.4612C135.833 58.4612 135.602 58.5481 135.429 58.7123C135.256 58.8862 135.159 59.0891 135.159 59.3402C135.159 59.4948 135.188 59.6397 135.256 59.7749C135.313 59.9198 135.429 60.0744 135.602 60.2386C135.689 60.3255 135.987 60.5573 136.498 60.9341C137.095 61.3784 137.509 61.7745 137.73 62.1222C137.952 62.47 138.067 62.8177 138.067 63.1655C138.067 63.6678 137.875 64.1025 137.499 64.4792C137.124 64.856 136.652 65.0395 136.113 65.0395C135.689 65.0395 135.313 64.9236 134.967 64.7014C134.62 64.4792 134.312 64.1025 134.023 63.5712L134.004 63.5615Z" fill="#565759"/>
<path d="M142.334 57.9105L145.56 64.8463H144.809L143.721 62.5665H140.745L139.667 64.8463H138.896L142.161 57.9105H142.334ZM142.247 59.3885L141.063 61.9H143.432L142.257 59.3885H142.247Z" fill="#565759"/>
<path d="M146.639 57.9105H147.332V64.1797H149.99V64.8463H146.639V57.9105Z" fill="#565759"/>
<path d="M154.379 57.7367C155.428 57.7367 156.304 58.0844 157.007 58.7896C157.71 59.4948 158.066 60.3545 158.066 61.3784C158.066 62.4024 157.71 63.2524 157.007 63.9673C156.304 64.6724 155.447 65.0298 154.436 65.0298C153.425 65.0298 152.549 64.6821 151.837 63.9769C151.134 63.2718 150.777 62.4217 150.777 61.4171C150.777 60.7506 150.941 60.1323 151.259 59.5624C151.577 58.9925 152.019 58.5481 152.578 58.2293C153.136 57.9106 153.733 57.7464 154.379 57.7464V57.7367ZM154.407 58.4129C153.897 58.4129 153.406 58.5481 152.953 58.8186C152.491 59.0891 152.135 59.4465 151.875 59.9005C151.615 60.3545 151.49 60.8568 151.49 61.4171C151.49 62.2382 151.779 62.9337 152.347 63.5036C152.915 64.0735 153.599 64.3537 154.407 64.3537C154.947 64.3537 155.438 64.2184 155.9 63.9576C156.352 63.6968 156.709 63.3394 156.969 62.8854C157.229 62.4314 157.354 61.9291 157.354 61.3784C157.354 60.8278 157.229 60.3255 156.969 59.8812C156.709 59.4368 156.352 59.0794 155.89 58.8089C155.428 58.5385 154.937 58.4032 154.407 58.4032V58.4129Z" fill="#565759"/>
<path d="M159.453 64.856V57.9203H159.607L164.21 63.2428V57.9203H164.893V64.856H164.739L160.175 59.6011V64.856H159.463H159.453Z" fill="#565759"/>
</g>
<defs>
<clipPath id="clip0_343_265">
<rect width="206" height="69" fill="white"/>
</clipPath>
</defs>
</svg>
