<svg width="227" height="76" viewBox="0 0 227 76" fill="none" xmlns="http://www.w3.org/2000/svg">
<path d="M0 23.0012V22.2704H3.66306V14.1267C3.66306 13.4171 3.53602 12.8347 3.29252 12.3899C3.04902 11.9451 2.53027 11.7227 1.72566 11.7227L5.92866 10.0601V22.2704H9.32705V23.0012H5.92866V50.0165C5.92866 50.6837 5.97101 51.3509 6.06629 52.0181C6.15098 52.6852 6.34155 53.2889 6.63798 53.8184C6.92383 54.3479 7.32613 54.7821 7.8343 55.121C8.34247 55.4493 9.02003 55.6187 9.86698 55.6187H6.00277C5.2511 55.6187 4.66882 55.2904 4.26652 54.6232C3.86422 53.9561 3.66306 53.2889 3.66306 52.6217V23.0012H0Z" fill="#D3D3D3"/>
<path d="M11.5388 55.6289C12.3434 55.6289 13.0209 55.4701 13.5714 55.163C14.122 54.8558 14.5984 54.4322 14.9689 53.8921C15.35 53.3626 15.6147 52.759 15.7735 52.0918C15.9323 51.4247 16.0064 50.7363 16.0064 50.0268V26.7497C16.0064 25.9978 15.8794 25.4048 15.6359 24.9811C15.3924 24.5575 14.8736 24.3457 14.069 24.3457L18.2085 22.609V30.6786C19.2354 28.0099 20.58 25.9343 22.2421 24.4411C23.9042 22.9478 26.2122 22.2065 29.1447 22.2065C29.9917 22.2065 30.8069 22.2595 31.6115 22.376C32.4161 22.4925 33.1889 22.7043 33.9406 23.0114L32.469 27.078C32.162 25.786 31.548 24.8117 30.6375 24.1445C29.727 23.4774 28.626 23.1173 27.3344 23.0749C26.2651 23.0326 25.3123 23.1808 24.4653 23.5409C23.6184 23.901 22.8667 24.3987 22.1997 25.0447C21.5328 25.6907 20.9611 26.432 20.4953 27.2792C20.0294 28.1264 19.6165 29.016 19.2566 29.9479C19.2142 30.0856 19.1295 30.3397 19.0237 30.7104C18.9072 31.0916 18.7908 31.4729 18.6531 31.8753C18.5155 32.2777 18.4096 32.6378 18.3249 32.9767C18.2403 33.305 18.1873 33.5485 18.1873 33.6756V50.0162C18.1873 50.7257 18.2614 51.4141 18.4202 52.0812C18.579 52.7484 18.8331 53.352 19.1825 53.8816C19.5424 54.4111 19.9871 54.8347 20.5164 55.1524C21.0458 55.4595 21.7128 55.6183 22.5174 55.6183H11.5176L11.5388 55.6289ZM24.6771 46.2249C24.6771 44.0433 25.1853 42.2748 26.2122 40.9193C27.2391 39.5637 28.5095 38.4306 30.0446 37.5198C31.5797 36.6091 33.2313 35.8572 35.0099 35.2536C36.7885 34.6499 38.44 34.0675 39.9751 33.485C41.5102 32.9026 42.7912 32.246 43.8076 31.5152C44.8345 30.7845 45.3427 29.842 45.3427 28.6771C45.3427 27.7452 45.0886 26.9086 44.5804 26.1778C44.0723 25.4471 43.437 24.8223 42.6748 24.314C41.9231 23.8056 41.0868 23.4032 40.1763 23.1173C39.2658 22.8314 38.4083 22.6831 37.6037 22.6831C36.7567 22.6831 36.005 22.7678 35.3381 22.9478C35.8251 22.7255 36.3227 22.5772 36.8414 22.5137C37.3496 22.4501 37.8789 22.4183 38.4083 22.4183C41.4785 22.4183 43.8605 23.3715 45.5756 25.2883C47.2907 27.2051 48.1482 29.6514 48.1482 32.6272V50.0373C48.1482 51.6365 48.5717 52.9708 49.4186 54.0404C50.2656 55.11 51.5254 55.6395 53.2193 55.6395H49.4186C48.667 55.6395 48.0635 55.4912 47.6189 55.2053C47.1742 54.9194 46.8248 54.5381 46.5813 54.0722C46.3379 53.6062 46.1685 53.0873 46.0838 52.5048C45.9991 51.9224 45.9461 51.3505 45.9461 50.7681C44.7922 52.3672 43.3418 53.5744 41.6161 54.3687C39.8904 55.163 38.0589 55.5972 36.1427 55.6395C34.7664 55.6395 33.3901 55.4383 32.0032 55.0359C30.6269 54.6335 29.3882 54.0404 28.2978 53.2356C27.2073 52.4307 26.3286 51.4458 25.6617 50.2703C24.9947 49.0948 24.6665 47.7499 24.6665 46.2355L24.6771 46.2249ZM27.2815 46.2249C27.2815 47.6016 27.6202 48.8301 28.319 49.8891C29.0071 50.9587 29.8752 51.8482 30.9233 52.5578C31.9714 53.2673 33.136 53.8074 34.4276 54.1569C35.7192 54.517 36.9579 54.6864 38.1648 54.6864C39.8587 54.6864 41.3726 54.2522 42.7277 53.3838C44.0828 52.5154 45.1627 51.3505 45.9673 49.8785V32.606C45.9673 32.1189 45.9461 31.6423 45.9038 31.1764C45.8614 30.7104 45.7873 30.2338 45.7026 29.7467C45.565 30.6363 45.0251 31.3882 44.0723 32.013C43.1194 32.6378 41.9443 33.252 40.568 33.8451C39.1917 34.4487 37.7307 35.0841 36.1956 35.7513C34.6605 36.4185 33.2313 37.2233 31.8973 38.1552C30.5634 39.0872 29.4624 40.1991 28.5942 41.4911C27.7261 42.7831 27.292 44.361 27.292 46.2249H27.2815Z" fill="#D3D3D3"/>
<path d="M65.944 55.6301H66.0075H54.9336H54.9971C56.5957 55.5878 57.7285 54.9947 58.3955 53.8616C59.0625 52.7284 59.3907 51.447 59.3907 50.0279V26.7509C59.3907 26.0837 59.2636 25.5119 59.0201 25.0459C58.7766 24.5799 58.2579 24.3469 57.4533 24.3469L61.5927 22.6843V28.4877C62.7467 26.4861 64.3242 24.9294 66.3251 23.8174C68.326 22.7055 70.4646 22.1548 72.7302 22.1548C74.6887 22.1548 76.3615 22.5043 77.7695 23.1926C79.167 23.881 80.321 24.8235 81.242 26.0308C82.1525 27.2274 82.8195 28.6253 83.2429 30.2033C83.6664 31.7812 83.8782 33.465 83.8782 35.2442V50.0491C83.8782 51.4682 84.2063 52.7496 84.8733 53.8827C85.5403 55.0159 86.6731 55.6089 88.2717 55.6513H77.1978C78.0024 55.6513 78.68 55.4924 79.2305 55.1853C79.781 54.8782 80.2363 54.4546 80.5962 53.9145C80.9562 53.385 81.2103 52.7814 81.3585 52.1142C81.5173 51.447 81.5914 50.7587 81.5914 50.0491V35.2442C81.5914 33.5074 81.4008 31.8977 81.0197 30.4045C80.6386 28.9113 80.0245 27.6405 79.1882 26.5709C78.3412 25.5013 77.2613 24.6541 75.9592 24.0398C74.6464 23.415 73.0583 23.1079 71.1951 23.1079C69.3318 23.1079 67.6484 23.595 66.1557 24.5799C64.6629 25.5542 63.456 26.825 62.5244 28.3818C62.482 28.4241 62.4079 28.5512 62.3232 28.7524C62.2385 28.9536 62.1327 29.176 62.0268 29.4196C61.9104 29.6632 61.8151 29.875 61.7304 30.055C61.6457 30.235 61.5927 30.3621 61.5927 30.4574V50.0703C61.5927 51.4894 61.9209 52.7708 62.5879 53.9039C63.2549 55.0371 64.3665 55.6301 65.9228 55.6725L65.944 55.6301Z" fill="#D3D3D3"/>
<path d="M86.9618 38.8117C86.9618 36.5455 87.4064 34.3957 88.2957 32.373C89.185 30.3502 90.3813 28.5817 91.8953 27.0673C93.4092 25.5529 95.1772 24.3562 97.1993 23.4667C99.2214 22.5771 101.371 22.1323 103.636 22.1323C104.568 22.1323 105.457 22.217 106.304 22.3971C107.151 22.5771 107.956 22.7889 108.739 23.0325C109.512 23.2761 110.274 23.4879 111.005 23.6679C111.735 23.8479 112.466 23.9326 113.175 23.9326C113.704 23.9326 114.159 23.7526 114.541 23.4031C114.922 23.0431 115.218 22.6301 115.44 22.1323V70.0949C115.44 70.7621 115.515 71.4293 115.673 72.0965C115.832 72.7636 116.076 73.3673 116.404 73.8968C116.732 74.4263 117.177 74.8499 117.738 75.1676C118.288 75.4747 118.977 75.6335 119.771 75.6335H108.697H108.76C109.565 75.6335 110.242 75.4747 110.793 75.1676C111.343 74.8605 111.799 74.4475 112.159 73.9285C112.519 73.4202 112.773 72.8272 112.921 72.16C113.08 71.4928 113.154 70.8045 113.154 70.0949V52.6212C111.735 53.5955 110.211 54.3368 108.591 54.824C106.971 55.3111 105.309 55.5759 103.626 55.6288C101.318 55.6712 99.1473 55.2582 97.1252 54.3898C95.1031 53.5214 93.3351 52.3247 91.8211 50.7892C90.3072 49.2536 89.1215 47.4533 88.2534 45.3882C87.3852 43.3231 86.9512 41.131 86.9512 38.8223L86.9618 38.8117ZM89.492 38.8753C89.492 41.1416 89.8732 43.249 90.6248 45.1764C91.3765 47.1144 92.4458 48.777 93.8221 50.1749C95.1984 51.5728 96.8393 52.6742 98.7556 53.479C100.672 54.2839 102.757 54.6757 105.023 54.6757C106.495 54.6757 107.924 54.411 109.321 53.8709C110.719 53.3308 112 52.6212 113.154 51.7317V25.9871C112 25.0552 110.729 24.3351 109.353 23.8161C107.977 23.3078 106.526 23.0537 105.023 23.0537C102.757 23.0537 100.661 23.4561 98.7556 24.2503C96.8393 25.0552 95.209 26.1672 93.8538 27.5862C92.4987 29.0053 91.4294 30.6785 90.6566 32.5848C89.8732 34.5016 89.492 36.5878 89.492 38.8541V38.8753Z" fill="#D3D3D3"/>
<path d="M118.765 24.335L122.968 22.6724V42.8148C122.968 44.5515 123.159 46.1612 123.54 47.6544C123.921 49.1476 124.525 50.4185 125.372 51.4881C126.218 52.5577 127.298 53.4049 128.601 54.0191C129.913 54.6439 131.501 54.951 133.365 54.951C135.228 54.951 136.943 54.4533 138.499 53.4472C140.056 52.4518 141.231 51.1492 142.035 49.5501C142.12 49.4124 142.3 49.0947 142.565 48.5864C142.829 48.078 142.967 47.7497 142.967 47.6227V26.4742C142.967 25.8494 142.819 25.3411 142.533 24.9386C142.247 24.5362 141.739 24.335 141.03 24.335L145.169 22.6724V51.2868C145.169 51.954 145.275 52.5259 145.497 52.9918C145.72 53.4578 146.207 53.6908 146.969 53.6908H147.106L142.967 55.3534V49.5501C141.813 51.5516 140.236 53.1083 138.235 54.2203C136.234 55.3323 134.095 55.8829 131.83 55.8829C129.871 55.8829 128.198 55.5441 126.79 54.8451C125.393 54.1568 124.228 53.2142 123.318 52.007C122.407 50.8103 121.74 49.4124 121.317 47.8345C120.893 46.2565 120.682 44.5727 120.682 42.7936V26.7178C120.682 26.0506 120.554 25.4787 120.311 25.0128C120.067 24.5468 119.549 24.3138 118.744 24.3138L118.765 24.335Z" fill="#D3D3D3"/>
<path d="M152.581 50.0171V26.7401C152.581 26.0729 152.464 25.501 152.253 25.035C152.03 24.5691 151.501 24.3361 150.654 24.3361L154.794 23.5312V50.0171C154.794 50.6843 154.868 51.3515 155.027 52.0186C155.185 52.6858 155.429 53.2895 155.757 53.819C156.085 54.3485 156.53 54.7827 157.091 55.1215C157.641 55.4498 158.351 55.6193 159.187 55.6193H148.113C148.96 55.6193 149.67 55.4498 150.252 55.1215C150.824 54.7932 151.289 54.3591 151.618 53.819C151.946 53.2895 152.189 52.6858 152.348 52.0186C152.507 51.3515 152.581 50.6843 152.581 50.0171Z" fill="#D3D3D3"/>
<path d="M171.851 55.6299H160.852C161.656 55.6299 162.334 55.471 162.884 55.1639C163.435 54.8568 163.901 54.4332 164.282 53.8931C164.663 53.3636 164.928 52.7599 165.086 52.0928C165.245 51.4256 165.319 50.7372 165.319 50.0277V6.13168C165.319 5.42214 165.192 4.86086 164.949 4.46903C164.705 4.0666 164.186 3.86539 163.382 3.86539L167.521 2.12861C168.326 1.37671 169.289 0.82603 170.422 0.497737C171.555 0.169443 172.656 0 173.725 0C176.658 0 178.934 0.900159 180.564 2.70048C182.195 4.5008 182.999 6.79885 182.999 9.60523C182.999 10.4101 182.883 11.3102 182.661 12.3057C182.438 13.3012 182.131 14.2437 181.729 15.1121C181.327 15.9805 180.861 16.7112 180.331 17.3148C179.802 17.9185 179.22 18.215 178.595 18.215C178.108 18.215 177.674 18.035 177.293 17.6855C176.912 17.3254 176.7 16.9124 176.658 16.4147C176.615 15.8852 176.795 15.4298 177.187 15.0485C177.589 14.6673 178.055 14.4767 178.585 14.4767C179.072 14.4767 179.485 14.6461 179.823 14.9744C180.151 15.3027 180.342 15.7157 180.395 16.2135C181.104 15.2392 181.634 14.1802 181.962 13.047C182.29 11.9139 182.459 10.7701 182.459 9.61582C182.459 6.94711 181.697 4.76555 180.162 3.08172C178.627 1.3873 176.51 0.550686 173.799 0.550686C172.73 0.550686 171.597 0.730718 170.401 1.08019C169.205 1.44026 168.241 2.0333 167.532 2.88051V50.0383C167.532 50.7478 167.606 51.4362 167.765 52.1033C167.924 52.7705 168.178 53.3742 168.527 53.9037C168.887 54.4332 169.332 54.8568 169.861 55.1745C170.39 55.4816 171.057 55.6404 171.862 55.6404L171.851 55.6299ZM173.651 55.6299C174.456 55.6299 175.133 55.471 175.684 55.1639C176.234 54.8568 176.69 54.4438 177.05 53.9248C177.409 53.4165 177.664 52.8235 177.812 52.1563C177.971 51.4891 178.045 50.8008 178.045 50.0912V26.9412C178.045 26.2317 177.928 25.6598 177.706 25.2362C177.484 24.8126 176.975 24.6008 176.171 24.6008L180.31 23.796V50.0806C180.31 50.7478 180.384 51.415 180.543 52.0822C180.702 52.7493 180.945 53.353 181.274 53.8825C181.602 54.412 182.036 54.8356 182.576 55.1533C183.105 55.4604 183.772 55.6193 184.577 55.6193H173.641L173.651 55.6299Z" fill="#D3D3D3"/>
<path d="M185.979 23.0012V22.2704H189.642V14.1267C189.642 13.4171 189.515 12.8347 189.271 12.3899C189.028 11.9451 188.509 11.7227 187.704 11.7227L191.907 10.0601V22.2704H195.306V23.0012H191.907V50.0165C191.907 50.6837 191.95 51.3509 192.045 52.0181C192.129 52.6852 192.32 53.2889 192.617 53.8184C192.902 54.3479 193.305 54.7821 193.813 55.121C194.321 55.4493 194.999 55.6187 195.846 55.6187H191.981C191.23 55.6187 190.647 55.2904 190.245 54.6232C189.843 53.9561 189.642 53.2889 189.642 52.6217V23.0012H185.979Z" fill="#D3D3D3"/>
<path d="M192.277 69.8411C192.277 69.8411 195.369 70.4659 196.607 71.1754C197.846 71.885 199.116 72.245 200.408 72.245C202.007 72.245 203.425 71.5779 204.675 70.2435C205.913 68.9091 207.004 67.3206 207.946 65.478C208.878 63.6353 209.672 61.7396 210.317 59.8122C210.963 57.8743 211.461 56.2857 211.821 55.0467L202.218 27.9678C201.954 27.2159 201.689 26.5064 201.414 25.8709C201.149 25.2249 200.821 24.6637 200.45 24.1659C200.069 23.6788 199.593 23.2975 199.021 23.0328C198.439 22.768 197.708 22.6304 196.819 22.6304H207.025C206.273 22.6304 205.543 22.7786 204.855 23.0646C204.166 23.3505 203.817 23.9647 203.817 24.8967C203.817 25.2567 203.859 25.5956 203.955 25.9345C204.039 26.2628 204.156 26.6123 204.293 26.9723L212.89 51.319L220.163 28.1055C220.428 27.3006 220.566 26.5064 220.566 25.7015C220.566 24.6743 220.29 23.9118 219.729 23.4034C219.168 22.8951 218.385 22.641 217.358 22.641H226.494C224.98 22.641 223.837 23.0222 223.064 23.7741C222.291 24.526 221.698 25.5744 221.296 26.9088L213.356 52.325C212.954 53.617 212.445 55.2373 211.821 57.1965C211.196 59.1557 210.476 61.1042 209.65 63.0634C208.825 65.0226 207.914 66.8335 206.919 68.4961C205.924 70.1588 204.865 71.3555 203.754 72.065C202.642 72.8169 201.371 73.1981 199.953 73.1981C198.534 73.1981 197.2 72.8698 195.813 72.2027C194.426 71.5355 193.262 70.7624 192.277 69.8729V69.8411Z" fill="#D3D3D3"/>
<path d="M153.646 18.0344C154.739 18.0344 155.626 17.1478 155.626 16.0541C155.626 14.9604 154.739 14.0737 153.646 14.0737C152.552 14.0737 151.666 14.9604 151.666 16.0541C151.666 17.1478 152.552 18.0344 153.646 18.0344Z" fill="#D3D3D3"/>
<path d="M128.98 67.2891C128.683 67.1514 128.451 66.9608 128.281 66.7172C128.112 66.4737 128.016 66.1983 128.006 65.9018H128.63C128.662 66.1877 128.789 66.4419 129.012 66.6643C129.234 66.8867 129.573 66.9926 130.007 66.9926C130.409 66.9926 130.727 66.8867 130.96 66.6855C131.193 66.4843 131.309 66.2195 131.309 65.9018C131.309 65.6476 131.245 65.4464 131.118 65.2876C130.991 65.1287 130.833 65.0122 130.631 64.9381C130.441 64.864 130.176 64.7792 129.837 64.6839C129.446 64.578 129.128 64.4721 128.895 64.3662C128.662 64.2603 128.461 64.1015 128.302 63.8897C128.143 63.6779 128.059 63.3814 128.059 63.0213C128.059 62.7142 128.133 62.4494 128.292 62.2058C128.451 61.9623 128.673 61.7822 128.959 61.6446C129.245 61.5069 129.573 61.4434 129.954 61.4434C130.504 61.4434 130.938 61.581 131.277 61.8458C131.616 62.1105 131.807 62.46 131.859 62.8836H131.214C131.171 62.64 131.044 62.4282 130.811 62.2376C130.589 62.047 130.282 61.9517 129.901 61.9517C129.541 61.9517 129.245 62.047 129.012 62.2376C128.779 62.4282 128.652 62.6824 128.652 63.0107C128.652 63.2543 128.715 63.4555 128.842 63.6143C128.969 63.7626 129.139 63.8791 129.329 63.9638C129.52 64.0485 129.784 64.1332 130.123 64.218C130.504 64.3239 130.822 64.4298 131.055 64.5357C131.288 64.6416 131.489 64.8004 131.658 65.0122C131.828 65.224 131.902 65.51 131.902 65.8806C131.902 66.156 131.828 66.4207 131.68 66.6643C131.531 66.9079 131.32 67.1091 131.023 67.2679C130.737 67.4162 130.388 67.5009 129.986 67.5009C129.583 67.5009 129.255 67.4374 128.959 67.2997L128.98 67.2891Z" fill="#D3D3D3"/>
<path d="M138.031 64.4398C137.692 64.7469 137.194 64.9058 136.527 64.9058H135.331V67.4262H134.738V61.5063H136.527C137.184 61.5063 137.681 61.6652 138.02 61.9723C138.359 62.2794 138.528 62.6924 138.528 63.2114C138.528 63.7303 138.359 64.1327 138.031 64.4398ZM137.925 63.2114C137.925 62.8195 137.819 62.5124 137.597 62.3112C137.374 62.11 137.025 62.0041 136.538 62.0041H135.342V64.3974H136.538C137.459 64.3974 137.925 64.0056 137.925 63.2114Z" fill="#D3D3D3"/>
<path d="M144.645 66.0286H141.956L141.437 67.4371H140.812L142.972 61.5913H143.639L145.788 67.4371H145.164L144.645 66.0286ZM144.465 65.5414L143.3 62.3432L142.136 65.5414H144.476H144.465Z" fill="#D3D3D3"/>
<path d="M153.212 67.2891C152.916 67.1514 152.683 66.9608 152.514 66.7172C152.344 66.4737 152.249 66.1983 152.238 65.9018H152.863C152.895 66.1877 153.022 66.4419 153.244 66.6643C153.466 66.8867 153.805 66.9926 154.239 66.9926C154.642 66.9926 154.959 66.8867 155.192 66.6855C155.425 66.4843 155.541 66.2195 155.541 65.9018C155.541 65.6476 155.478 65.4464 155.351 65.2876C155.224 65.1287 155.065 65.0122 154.864 64.9381C154.673 64.864 154.409 64.7792 154.07 64.6839C153.678 64.578 153.36 64.4721 153.128 64.3662C152.895 64.2603 152.694 64.1015 152.535 63.8897C152.376 63.6779 152.291 63.3814 152.291 63.0213C152.291 62.7142 152.365 62.4494 152.524 62.2058C152.683 61.9623 152.905 61.7822 153.191 61.6446C153.477 61.5069 153.805 61.4434 154.186 61.4434C154.737 61.4434 155.171 61.581 155.51 61.8458C155.848 62.1105 156.039 62.46 156.092 62.8836H155.446C155.404 62.64 155.277 62.4282 155.044 62.2376C154.821 62.047 154.514 61.9517 154.133 61.9517C153.773 61.9517 153.477 62.047 153.244 62.2376C153.011 62.4282 152.884 62.6824 152.884 63.0107C152.884 63.2543 152.948 63.4555 153.075 63.6143C153.202 63.7626 153.371 63.8791 153.562 63.9638C153.752 64.0485 154.017 64.1332 154.356 64.218C154.737 64.3239 155.054 64.4298 155.287 64.5357C155.52 64.6416 155.721 64.8004 155.891 65.0122C156.06 65.224 156.134 65.51 156.134 65.8806C156.134 66.156 156.06 66.4207 155.912 66.6643C155.764 66.9079 155.552 67.1091 155.256 67.2679C154.97 67.4162 154.62 67.5009 154.218 67.5009C153.816 67.5009 153.488 67.4374 153.191 67.2997L153.212 67.2891Z" fill="#D3D3D3"/>
<path d="M162.424 66.0286H159.735L159.216 67.4371H158.592L160.752 61.5913H161.418L163.568 67.4371H162.943L162.424 66.0286ZM162.244 65.5414L161.08 62.3432L159.915 65.5414H162.255H162.244Z" fill="#D3D3D3"/>
<path d="M166.796 66.9503H168.924V67.4375H166.203V61.5176H166.796V66.9609V66.9503Z" fill="#D3D3D3"/>
<path d="M172.629 67.1084C172.185 66.8543 171.835 66.4942 171.571 66.0282C171.316 65.5729 171.189 65.0434 171.189 64.4609C171.189 63.8784 171.316 63.3595 171.571 62.8936C171.825 62.4382 172.174 62.0781 172.629 61.8134C173.074 61.5592 173.571 61.4321 174.122 61.4321C174.673 61.4321 175.181 61.5592 175.625 61.8134C176.07 62.0675 176.419 62.4276 176.673 62.8936C176.928 63.3595 177.055 63.8784 177.055 64.4609C177.055 65.0434 176.928 65.5623 176.673 66.0282C176.419 66.4942 176.07 66.8437 175.625 67.1084C175.181 67.3626 174.683 67.4897 174.122 67.4897C173.561 67.4897 173.074 67.3626 172.629 67.1084ZM175.308 66.6742C175.657 66.473 175.932 66.1765 176.134 65.7952C176.335 65.414 176.441 64.9692 176.441 64.4715C176.441 63.9737 176.335 63.529 176.134 63.1477C175.932 62.7665 175.657 62.4805 175.308 62.2793C174.958 62.0781 174.567 61.9722 174.122 61.9722C173.677 61.9722 173.286 62.0781 172.936 62.2793C172.587 62.4805 172.312 62.7771 172.111 63.1477C171.909 63.529 171.803 63.9632 171.803 64.4715C171.803 64.9798 171.909 65.414 172.111 65.7952C172.312 66.1765 172.587 66.473 172.936 66.6742C173.286 66.8754 173.677 66.9813 174.122 66.9813C174.567 66.9813 174.958 66.8754 175.308 66.6742Z" fill="#D3D3D3"/>
<path d="M184.296 67.4375H183.703L180.421 62.4601V67.4375H179.828V61.5176H180.421L183.703 66.4949V61.5176H184.296V67.4375Z" fill="#D3D3D3"/>
</svg>
